<?xml version="1.0" standalone="no"?>
<!DOCTYPE svg PUBLIC "-//W3C//DTD SVG 20010904//EN"
 "http://www.w3.org/TR/2001/REC-SVG-20010904/DTD/svg10.dtd">
<svg version="1.0" xmlns="http://www.w3.org/2000/svg"
 width="637.000000pt" height="638.000000pt" viewBox="0 0 637.000000 638.000000"
 preserveAspectRatio="xMidYMid meet">

<g transform="translate(0.000000,638.000000) scale(0.100000,-0.100000)"
fill="#000000" stroke="none">
<path d="M2995 6374 c-665 -43 -1280 -280 -1806 -694 -140 -111 -413 -388
-526 -535 -51 -66 -93 -123 -93 -127 0 -5 459 -8 1020 -8 l1020 0 -2 -342 -3
-343 -1205 -5 -1204 -5 -38 -110 c-59 -176 -114 -418 -143 -627 l-6 -48 1285
0 1286 0 0 -340 0 -340 -1286 0 -1285 0 6 -47 c29 -216 84 -453 148 -643 l42
-125 1188 -3 1187 -2 0 -340 0 -340 -1000 0 c-950 0 -1000 -1 -991 -18 25 -45
198 -250 306 -361 513 -528 1160 -850 1910 -947 179 -24 571 -24 750 0 613 79
1144 302 1616 677 126 100 334 302 435 422 l75 88 -1398 980 c-769 540 -1404
986 -1411 993 -9 9 281 217 1393 995 773 541 1405 988 1405 994 0 18 -137 171
-267 298 -503 492 -1138 797 -1843 884 -125 15 -452 26 -565 19z"/>
<path d="M5055 3894 c-544 -381 -991 -697 -993 -702 -2 -8 1968 -1392 1982
-1392 19 0 143 314 197 498 87 299 122 555 122 892 0 262 -12 392 -58 630 -44
223 -140 517 -233 712 l-27 57 -990 -695z"/>
</g>
</svg>
